<svg xmlns="http://www.w3.org/2000/svg" fill="none" aria-hidden="true" viewBox="0 0 30 30"><g fill="currentColor" clip-path="url(#instagram_svg__a)"><path d="M29.97 8.82c-.07-1.594-.328-2.69-.697-3.64a7.3 7.3 0 0 0-1.735-2.66A7.4 7.4 0 0 0 24.884.791c-.956-.37-2.046-.627-3.64-.697C19.638.018 19.128 0 15.055 0s-4.582.018-6.182.088c-1.594.07-2.69.328-3.64.697a7.3 7.3 0 0 0-2.66 1.735 7.4 7.4 0 0 0-1.73 2.655C.475 6.13.218 7.22.147 8.815.07 10.42.052 10.93.052 15.002s.018 4.583.088 6.183c.07 1.594.329 2.69.698 3.64a7.4 7.4 0 0 0 1.735 2.66 7.4 7.4 0 0 0 2.654 1.729c.956.369 2.046.627 3.64.697 1.6.07 2.11.088 6.183.088s4.583-.017 6.183-.088c1.594-.07 2.69-.328 3.639-.697a7.67 7.67 0 0 0 4.39-4.39c.369-.955.627-2.045.697-3.64.07-1.6.088-2.109.088-6.182s-.006-4.583-.077-6.183M27.27 21.07c-.065 1.465-.31 2.256-.516 2.783a4.98 4.98 0 0 1-2.848 2.849c-.528.205-1.325.45-2.784.515-1.582.07-2.057.088-6.06.088-4.002 0-4.483-.017-6.06-.088-1.465-.064-2.256-.31-2.783-.515a4.6 4.6 0 0 1-1.723-1.12 4.7 4.7 0 0 1-1.12-1.723c-.205-.527-.45-1.324-.515-2.783-.07-1.583-.088-2.058-.088-6.06 0-4.003.017-4.484.088-6.06.064-1.465.31-2.256.515-2.784a4.56 4.56 0 0 1 1.126-1.723 4.66 4.66 0 0 1 1.723-1.12c.527-.204 1.324-.45 2.783-.515 1.583-.07 2.058-.088 6.06-.088 4.009 0 4.483.018 6.06.088 1.465.065 2.256.31 2.784.516.65.24 1.242.62 1.723 1.119a4.7 4.7 0 0 1 1.12 1.723c.204.528.45 1.325.515 2.784.07 1.582.088 2.057.088 6.06 0 4.002-.018 4.471-.088 6.054"></path><path d="M15.055 7.296a7.71 7.71 0 0 0-7.706 7.707 7.71 7.71 0 0 0 7.706 7.707 7.71 7.71 0 0 0 7.707-7.707 7.71 7.71 0 0 0-7.707-7.707m0 12.706a5 5 0 1 1 .002-10 5 5 0 0 1-.002 10M24.866 6.992a1.8 1.8 0 1 1-3.598 0 1.8 1.8 0 0 1 3.598 0"></path></g><defs><clipPath id="instagram_svg__a"><path fill="#fff" d="M0 0h30v30H0z"></path></clipPath></defs></svg>