<svg xmlns="http://www.w3.org/2000/svg" fill="none" viewBox="0 0 116 28" class="Footer_logo__oqoeK"><path fill="#fff" d="M25.881 26.717c.898 0 1.445-.962 1.05-1.706l-6.65-12.356 5.433-10.42c.444-.753-.106-1.756-1.026-1.756h-6.617c-.428 0-.85.237-1.049.643L12.426 9.85h-2.062V1.656c0-.643-.521-1.17-1.18-1.17l-6-.004C2.53.482 2 1.01 2 1.656v23.88a1.18 1.18 0 0 0 1.184 1.172l6 .009c.659 0 1.18-.528 1.18-1.18v-8.815h2.789l4.992 9.36c.216.422.656.657 1.103.635zM31.17.479h19.506c.657 0 1.181.53 1.184 1.177V6.17c0 .65-.527 1.18-1.184 1.18H38.35v2.5h7.759c.656 0 1.183.524 1.183 1.174v4.523c0 .647-.524 1.174-1.183 1.174h-7.76v2.812h12.327a1.18 1.18 0 0 1 1.184 1.171v4.832a1.18 1.18 0 0 1-1.184 1.18H31.17a1.18 1.18 0 0 1-1.184-1.18V1.653A1.18 1.18 0 0 1 31.17.48M56.582.479H76.09c.656 0 1.18.53 1.184 1.177V6.17c0 .65-.528 1.18-1.184 1.18H63.762v2.5h7.76c.655 0 1.183.524 1.183 1.174v4.523c0 .647-.524 1.174-1.184 1.174h-7.759v8.815a1.18 1.18 0 0 1-1.184 1.18h-5.996a1.18 1.18 0 0 1-1.183-1.18V1.653A1.18 1.18 0 0 1 56.582.48M81.352.479h5.996c.656 0 1.18.53 1.183 1.177v23.88a1.18 1.18 0 0 1-1.183 1.18h-5.996a1.18 1.18 0 0 1-1.184-1.18V1.653A1.18 1.18 0 0 1 81.352.48"></path><path fill="#fff" fill-rule="evenodd" d="m115.099 25.04-4.684-6.987c2.262-1.582 3.74-5.144 3.74-8.048 0-4.822-4.039-9.543-9.019-9.543-.117 0-.225.014-.342.016H93.265c-.662 0-1.195.514-1.195 1.152v23.933c0 .632.539 1.148 1.195 1.148l5.976.006c.67 0 1.193-.52 1.193-1.154v-6.03h1.125l4.264 6.56c.22.411.665.64 1.116.62h7.107c.901-.002 1.452-.943 1.053-1.672m-11.224-12.393v.013h-3.441V7.35h3.407l.031-.002c1.284 0 2.352 1.096 2.352 2.657 0 1.562-1.065 2.636-2.349 2.642" clip-rule="evenodd"></path></svg>