<svg xmlns="http://www.w3.org/2000/svg" fill="none" viewBox="0 0 410 96" class="GamesCarouselItem_logo__tVEvC"><g fill="#fff" clip-path="url(#logo_svg__a)"><path d="M340.2 27.871c2.202 2.616 4.372 5.188 6.633 7.87.038-.292.075-.45.075-.607-.017-7.91-.024-15.82-.073-23.73-.009-1.552-.161-3.105-.285-4.655-.151-1.894-1.127-3.144-2.995-3.59-.926-.222-1.875-.354-2.818-.497-.509-.077-1.027-.091-1.585-.138V.617h17.275v1.867c-.607.097-1.239.192-1.868.3a17 17 0 0 0-1.138.235c-2.182.534-3.025 1.84-3.094 3.897-.105 3.136-.192 6.274-.202 9.411-.027 9.83-.014 19.659-.016 29.488v1.03c-.857 0-1.675.03-2.487-.022-.206-.013-.432-.258-.589-.446a499 499 0 0 1-3.662-4.432c-4.014-4.915-8.022-9.834-12.035-14.749q-6.288-7.704-12.584-15.403c-.388-.474-.811-.92-1.311-1.486-.032.28-.061.42-.061.56.014 7.469 0 14.938.067 22.407.021 2.277.256 4.554.417 6.829.123 1.722 1.091 2.85 2.676 3.36 1.099.352 2.266.492 3.403.727.222.046.445.087.684.133v1.857h-16.993c-.014-.306-.033-.607-.04-.908-.007-.284-.001-.567-.001-.937.455-.088.9-.169 1.345-.26.582-.119 1.166-.23 1.743-.37 1.888-.462 2.916-1.719 3.122-3.609.181-1.672.326-3.357.343-5.038.066-6.56.079-13.122.104-19.684q.015-3.034-.018-6.068c-.009-.853-.03-1.709-.357-2.524-.917-2.302-2.615-3.6-5.038-3.976-.733-.113-1.469-.212-2.176-.314V.585h1.041c2.922-.01 5.844-.01 8.767-.043.543-.006.881.18 1.23.599 2.918 3.501 5.867 6.977 8.804 10.463 4.556 5.407 9.11 10.816 13.697 16.267M61.339 35.642c0-8.324.008-16.572-.003-24.82-.002-1.425-.027-2.855-.144-4.274-.204-2.468-1.03-3.243-3.25-3.66-.939-.176-1.894-.263-2.888-.396V.57h32.083l.72 10.71-2.18.24c-.2-.617-.375-1.18-.568-1.738-.58-1.671-1.301-3.267-2.392-4.682-.707-.917-1.638-1.401-2.741-1.6-.328-.058-.67-.07-1.004-.071-3.259-.019-6.517-.036-9.775-.04-1.331-.002-1.72.388-1.733 1.765a692 692 0 0 0-.03 6.847c-.001 2.982.007 5.965.01 8.948v.762c.116.048.184.1.252.1q5.16-.007 10.318-.032c.307-.002.615-.064.922-.105 1.354-.185 2.296-.923 2.75-2.205.317-.9.526-1.84.781-2.762.055-.197.102-.397.158-.62h2.032v14.626l-2.004.108c-.157-.602-.297-1.175-.458-1.743-.191-.672-.37-1.35-.608-2.006-.388-1.074-1.14-1.783-2.269-2.02-.68-.142-1.373-.294-2.062-.304-3.155-.047-6.31-.046-9.465-.06-.076 0-.153.017-.288.034-.018.189-.054.384-.054.58 0 4.305-.001 8.61.01 12.915.002 1.143.099 2.273.432 3.38.277.923.837 1.579 1.741 1.824 1.018.277 2.067.438 3.108.62.556.098 1.122.134 1.734.204v1.825c-.503.152-18.475.189-19.427.027V44.29c.631-.081 1.242-.14 1.845-.243.712-.122 1.426-.25 2.122-.437.997-.268 1.682-.892 1.909-1.937.115-.53.256-1.063.283-1.6.074-1.45.092-2.902.133-4.43M292.705 17.227c.28.15.508.27.735.395 3.126 1.724 3.912 5.087 3.359 7.936-.402 2.07-1.487 3.674-3.222 4.841-.792.532-1.601 1.037-2.44 1.58.273.45.526.896.808 1.323 1.643 2.483 3.262 4.981 4.953 7.43a20.4 20.4 0 0 0 2.288 2.738c.551.557 1.275.95 1.942 1.384.3.196.65.314 1.059.505l-.201 1.203c-1.623-.071-3.168-.142-4.666-.594-1.386-.418-2.513-1.258-3.359-2.396-1.173-1.576-2.258-3.219-3.34-4.86-.769-1.167-1.463-2.383-2.206-3.567-.247-.394-.5-.799-.824-1.125-.261-.263-.608-.517-.958-.598-1.212-.28-2.448-.271-3.722-.201-.023.222-.056.396-.056.57.001 2.489-.001 4.978.018 7.466.004.542.056 1.088.145 1.622.147.878.662 1.445 1.551 1.618.759.148 1.523.272 2.392.425l.094 1.264h-12.271v-1.285c.802-.131 1.563-.253 2.324-.38.968-.163 1.506-.75 1.629-1.712.069-.539.126-1.083.127-1.625.009-6.533.012-13.067.001-19.6a13 13 0 0 0-.159-1.933c-.125-.813-.602-1.368-1.415-1.571-.524-.131-1.06-.22-1.591-.323-.276-.053-.556-.093-.918-.152l-.057-1.228c.162-.036.259-.077.356-.077 4.447.013 8.894.013 13.34.054 1.454.013 2.873.305 4.284.873m-.742 4.123c-.496-1.204-1.351-2.075-2.512-2.63-1.537-.735-3.163-.888-4.836-.674-1.409.18-1.742.522-1.748 1.922-.015 3.703-.008 7.407-.007 11.11 0 .172.04.344.068.573 1.556-.046 3.093.118 4.583-.223 2.283-.523 3.974-1.81 4.717-4.13.631-1.967.608-3.921-.265-5.948M96.641 19.077c-.387-.788-1.06-1.028-1.79-1.163-.633-.117-1.269-.218-1.944-.333v-1.235c.29-.019.541-.05.791-.05q5.818.001 11.636.004c1.768 0 3.521.164 5.179.808 2.582 1.002 4.356 3.153 4.501 5.962.083 1.6-.029 3.146-.826 4.598-.788 1.437-1.962 2.454-3.308 3.308-.521.33-1.067.619-1.651.955.405.674.752 1.304 1.149 1.9 1.595 2.39 3.185 4.785 4.822 7.146.574.827 1.263 1.575 1.929 2.333.676.771 1.531 1.305 2.46 1.724.256.115.507.243.828.398l-.325 1.123c-1.617-.06-3.163-.128-4.659-.593-1.459-.454-2.623-1.355-3.512-2.57-1.022-1.4-1.984-2.845-2.929-4.299a118 118 0 0 1-2.658-4.292c-.559-.944-1.296-1.508-2.424-1.526-.925-.014-1.85-.083-2.815-.13-.04.253-.089.423-.089.592.004 2.645.003 5.29.033 7.934.005.486.11.977.22 1.454.175.752.668 1.22 1.42 1.373.782.158 1.572.278 2.406.423v1.266H92.848l.106-1.318c.533-.07 1.019-.124 1.5-.203.381-.062.765-.13 1.134-.242.678-.206 1.09-.681 1.21-1.38.077-.46.152-.926.153-1.389.008-6.975.01-13.95-.01-20.925-.002-.532-.18-1.064-.3-1.653m12.516 10.34a5.7 5.7 0 0 0 1.219-2.226c.504-1.713.521-3.42-.011-5.124-.365-1.167-.983-2.221-1.991-2.89-1.958-1.3-4.143-1.48-6.4-.975-.538.12-.827.515-.911 1.042-.049.305-.047.62-.048.93q-.01 5.364-.011 10.728c0 .226.026.452.045.779 1.376-.053 2.715-.056 4.044-.169 1.58-.135 2.913-.838 4.064-2.095M213.082 46.228h-2.883l.065-1.292c.778-.138 1.529-.295 2.287-.398.956-.131 1.463-.704 1.648-1.603a6 6 0 0 0 .143-1.23q.01-10.458.001-20.918a5 5 0 0 0-.063-.852c-.213-1.247-.753-1.8-1.998-2.034-.657-.124-1.321-.217-2.034-.333v-1.203c.217-.025.412-.067.606-.067 4.163 0 8.324 0 12.485.011 1.564.004 3.1.24 4.55.829 2.051.833 3.552 2.235 4.022 4.484.644 3.093-.713 5.812-3.175 7.237-.71.41-1.456.756-2.308 1.196.256.081.385.137.518.162 1.757.328 3.364.99 4.751 2.141 1.294 1.074 2.062 2.428 2.2 4.13.281 3.487-1.291 6.282-4.425 7.974-2.22 1.2-4.606 1.682-7.085 1.726-3.075.054-6.152.03-9.305.04m5.437-3.715c.276 1.013.872 1.702 1.947 1.862 1.953.29 3.867.233 5.677-.693 1.676-.859 2.725-2.227 3.074-4.057.177-.93.195-1.913.129-2.86-.141-2.04-1.149-3.572-2.973-4.515a9.6 9.6 0 0 0-3.789-1.042c-1.264-.086-2.531-.103-3.797-.146-.123-.004-.246.022-.4.038-.015.183-.037.334-.037.485.004 3.268.007 6.536.021 9.804.002.333.075.666.148 1.124m.157-23.876c-.1.337-.282.675-.286 1.014-.031 3.08-.032 6.16-.037 9.24 0 .172.044.344.069.532 1.876.095 3.712.105 5.499-.354 1.597-.411 2.872-1.303 3.447-2.941.195-.556.334-1.15.383-1.735.247-2.899-1.003-5.697-4.543-6.203-1.087-.155-2.209-.11-3.314-.073-.382.012-.755.28-1.218.52M148.414 42.816c-3.176 2.993-6.955 4.207-11.185 4.052-3.972-.146-7.488-1.5-10.301-4.39-2.364-2.43-3.799-5.338-4.16-8.74-.291-2.74-.169-5.452.845-8.042 2.14-5.47 6.016-8.864 11.88-9.835 2.66-.44 5.266-.241 7.79.684 3.993 1.464 6.823 4.183 8.541 8.089 1.267 2.876 1.359 5.87 1.03 8.924a15.2 15.2 0 0 1-2.586 6.998c-.536.787-1.206 1.484-1.854 2.26m-11.259 2.194c2.062.37 4.012.011 5.858-.943 2.199-1.137 3.438-3.067 4.293-5.306 1.03-2.705 1.071-5.523.956-8.359-.095-2.36-.625-4.616-1.65-6.745-1.406-2.917-3.55-4.985-6.712-5.916-2.559-.754-4.961-.404-7.238.923-2.01 1.172-3.278 2.973-4.117 5.1-1.139 2.887-1.361 5.886-1.024 8.947.263 2.396.907 4.682 2.102 6.78 1.656 2.913 4.019 4.903 7.532 5.519M245.93 44.321c-3.296-2.3-5.348-5.403-6.147-9.262-.824-3.98-.386-7.849 1.585-11.461 2.329-4.271 5.894-6.845 10.68-7.707 3.28-.592 6.459-.223 9.448 1.24 3.534 1.73 6.047 4.436 7.398 8.196.926 2.578 1.031 5.215.78 7.899-.224 2.413-.928 4.676-2.193 6.738-2.078 3.388-5.059 5.55-8.93 6.461-3.507.826-6.935.57-10.257-.824-.806-.338-1.547-.828-2.364-1.28m15.401-23.77c-1.091-1.233-2.454-2.055-3.983-2.604-2.89-1.037-5.66-.75-8.222.943-2.137 1.412-3.418 3.485-4.161 5.908-.604 1.977-.79 4.013-.739 6.068.069 2.884.614 5.665 1.983 8.232 1.443 2.706 3.49 4.724 6.502 5.63 2.591.78 5.07.507 7.402-.823 2.24-1.277 3.469-3.36 4.2-5.753 1.098-3.598 1.14-7.248.336-10.905-.541-2.461-1.517-4.729-3.318-6.696M164.024 16.377c1.816-.627 3.628-.882 5.478-.686 1.693.18 3.377.443 5.159.682.234 2.221.462 4.4.699 6.665l-1.367.342c-.136-.386-.242-.75-.391-1.096-.357-.83-.65-1.704-1.121-2.465-1.27-2.048-3.939-3.034-6.236-2.392-2.121.591-3.297 2.025-3.504 4.234-.235 2.496.876 4.307 2.88 5.628.949.625 1.957 1.16 2.948 1.714.97.543 1.962 1.046 2.93 1.593a11.8 11.8 0 0 1 3.273 2.71c2.454 2.934 2.136 7.79-.661 10.59-1.827 1.828-4.059 2.698-6.584 2.939-2.096.2-4.12-.198-6.131-.71-.526-.133-1.038-.317-1.564-.447-.406-.1-.609-.344-.681-.743-.142-.79-.309-1.577-.447-2.367-.197-1.123-.38-2.248-.565-3.373-.041-.25-.066-.505-.108-.828l1.339-.37.767 1.9c.551 1.364 1.316 2.579 2.408 3.579 2.016 1.846 5.112 2.254 7.511.95 1.177-.64 1.896-1.657 2.223-2.953.284-1.127.271-2.263.011-3.39-.261-1.132-.953-1.998-1.806-2.745-1.337-1.17-2.889-1.998-4.457-2.8-1.688-.864-3.289-1.853-4.653-3.193-1.49-1.465-2.304-3.245-2.351-5.336-.076-3.393 1.41-5.867 4.452-7.381.162-.081.328-.154.549-.252M185.879 18.225c-.333.006-.592.015-.85.015-1.183.001-2.028.576-2.548 1.602-.373.736-.661 1.517-.975 2.283-.186.453-.349.915-.54 1.42h-1.316c.019-1.39.208-2.79.324-4.193.116-1.384.255-2.766.385-4.175.704.035 1.208.263 1.591.711.205.24.435.343.737.35.36.01.722.055 1.083.056q8.922.004 17.844 0c.233 0 .465-.014.697-.014.641 0 1.208-.135 1.685-.63.345-.36.793-.591 1.425-.347l.446 8.093-1.345.165c-.178-.527-.325-1.018-.509-1.493-.3-.772-.591-1.549-.947-2.294-.473-.995-1.266-1.537-2.4-1.54-1.809-.002-3.62-.021-5.43-.03-.148-.001-.297.02-.469.034-.018.141-.043.24-.043.338.003 7.547.003 15.093.021 22.64.001.592.104 1.186.19 1.775.106.713.532 1.195 1.222 1.354.878.203 1.774.331 2.662.488.176.03.355.045.622.078.02.405.042.804.066 1.268h-13.418c-.015-.173-.043-.37-.045-.566-.002-.205.021-.41.037-.692.61-.078 1.217-.144 1.819-.236.459-.07.921-.143 1.366-.272.643-.187 1.078-.618 1.192-1.298.09-.535.185-1.078.187-1.618.024-6.483.03-12.967.04-19.45.002-1.243 0-2.486 0-3.833-.825-.053-1.615-.007-2.402-.008-.776 0-1.552.012-2.404.019M250.733 63.75c29.677.106 115.064.298 144.704.404 0 .447-.01.738-.01 1.203-36.555.043-128.853.292-165.417.278V63.75zM140.395 65.567c-23.064-.074-102.88-.148-125.9-.222v-1.19c36.025-.12 128.816-.337 164.796-.457v1.869zM221.192 95.544c-1.54.001-3.013.005-4.486 0-.267-.001-.6.061-.607-.483.389-.109.794-.246 1.21-.332.417-.088.627-.296.624-.738-.003-.387.057-.775.057-1.163.006-2.825.004-5.65.004-8.473 0-.182-.009-.363-.014-.544-.017-.57-.31-.909-.859-1.04a7 7 0 0 1-.67-.19c-.217-.074-.348-.214-.266-.514.137-.017.282-.048.427-.048 1.731-.002 3.462-.005 5.193.002.832.004 1.634.126 2.423.436 1.974.776 2.34 3.32 1.5 4.731a3.7 3.7 0 0 1-1.29 1.315c-.285.172-.556.366-.865.57.099.208.163.404.274.567.928 1.37 1.858 2.74 2.802 4.1.373.538.836.98 1.463 1.231.174.07.309.233.608.47-.353.12-.547.241-.741.242-1.423.008-2.649-.427-3.465-1.678-.707-1.082-1.444-2.15-2.071-3.278-.432-.778-.978-1.163-1.858-1.078-.224.022-.452.004-.744.004-.054 1.467-.077 2.884.046 4.3.039.461.284.766.771.832.23.032.479.034.682.13.152.072.243.272.362.416-.148.07-.295.142-.51.213m1.566-12.452c-.672-.303-1.369-.463-2.103-.32-.712.137-.82.255-.828.976-.019 1.553-.018 3.105-.017 4.657 0 .17.048.338.084.568.735-.056 1.438-.044 2.112-.179.907-.18 1.585-.721 1.935-1.615.577-1.47.157-3.034-1.183-4.087M151.22 92.325c-1.442-2.628-1.039-6.022.958-8.327 2.93-3.379 8.564-2.916 10.855.919 1.205 2.02 1.224 4.181.559 6.38-.623 2.062-1.99 3.5-3.992 4.134-3.114.985-6.39.22-8.196-2.787a7 7 0 0 1-.184-.32m6.861 2.653c.695-.103 1.383-.237 1.935-.72.778-.682 1.333-1.51 1.571-2.531.328-1.405.386-2.82.182-4.249-.238-1.658-.913-3.07-2.243-4.125-1.299-1.032-3.439-1.12-4.728-.192-1.004.722-1.68 1.687-1.995 2.88-.579 2.192-.425 4.34.672 6.335.95 1.73 2.366 2.795 4.606 2.602M135.568 94.69c-1.609 1.133-3.38 1.287-5.175 1.017-2.519-.38-4.202-1.891-5.095-4.254-1.067-2.82-.437-5.37 1.478-7.594 1.755-2.038 4.836-2.67 7.482-1.666 2.497.948 4.185 3.423 4.204 6.156.014 1.976-.406 3.811-1.754 5.33-.323.364-.727.656-1.14 1.011m-7.725-9.984c-.928 1.636-1.011 3.406-.729 5.2.241 1.537.829 2.926 2.017 4.012a4.145 4.145 0 0 0 6.578-1.27c.447-.929.62-1.92.678-2.93.094-1.629-.107-3.213-.937-4.651-.667-1.156-1.561-2.08-2.906-2.4-1.666-.397-3.369-.07-4.701 2.039M202.955 88.263c.001.622-.028 1.168.01 1.711.041.591.084 1.195.23 1.766.675 2.647 3.586 3.776 5.909 2.313.544-.343.909-.822 1.131-1.434.415-1.142.49-2.329.486-3.523a199 199 0 0 0-.085-4.822c-.027-1.007-.336-1.358-1.335-1.615-.226-.057-.457-.104-.667-.196-.088-.038-.131-.18-.28-.4 1.784-.098 3.442.011 5.056-.08.212.355.088.512-.179.6q-.369.12-.742.224c-.512.142-.754.448-.76 1.01a193 193 0 0 1-.138 5.986c-.04.926-.119 1.87-.346 2.764-.451 1.782-1.676 2.818-3.466 3.14-1.024.182-2.061.14-3.083-.078-1.679-.357-2.741-1.408-3.225-3.018-.197-.659-.264-1.374-.285-2.067-.045-1.45-.006-2.904-.029-4.356a49 49 0 0 0-.13-2.561c-.041-.604-.192-.77-.756-.919-.174-.045-.371-.03-.53-.101-.184-.085-.337-.235-.565-.402.539-.206 4.721-.258 5.738-.1-.125.161-.195.336-.319.393-.279.129-.582.21-.88.292-.495.135-.713.442-.714.961-.002 1.478-.029 2.956-.046 4.512M172.025 89.884c-.242-.042-.417-.067-.61-.094 0 1.322-.051 2.614.018 3.9.049.906.16.94 1.081 1.1.255.045.517.066.759.15.111.039.255.212.244.308-.012.103-.179.208-.298.271-.084.045-.203.028-.305.028h-4.65c-.077 0-.163.013-.23-.014-.111-.045-.208-.118-.313-.18.073-.12.12-.31.224-.35.359-.14.739-.227 1.11-.34.122-.035.238-.087.426-.159.038-.555.108-1.118.11-1.68.013-2.824.008-5.648.008-8.47 0-.156-.002-.312-.019-.466-.086-.782-.248-.965-1.008-1.164-.199-.053-.413-.081-.587-.18-.129-.072-.204-.24-.367-.447.269-.038.411-.075.553-.077 1.679-.005 3.359-.012 5.038-.003.989.005 1.94.166 2.854.596 1.098.516 1.637 1.421 1.809 2.542.44 2.88-1.814 5.209-4.708 4.912-.359-.036-.715-.109-1.139-.183m3.936-4.557c-.309-1.888-1.807-2.753-3.441-2.617-.865.072-1.142.36-1.148 1.222-.01 1.499-.007 3-.004 4.499.001.175.037.35.056.527.196.077.357.166.53.204 2.167.478 3.861-.605 4.024-2.85.021-.282.002-.568-.017-.985M225.556 65.08c.271-.099.482-.182.809-.31-.205-.126-.311-.21-.431-.263q-2.905-1.278-5.811-2.549c-.115-.05-.247-.124-.36-.109-1.061.146-1.71-.537-2.484-1.175.505-.548 1.13-.788 1.62-1.111 1.652.817 3.222 1.657 4.845 2.378 1.6.712 3.254 1.304 4.94 1.97v1.653c-.217.096-.467.216-.725.316q-1.554.598-3.11 1.192c-1.837.702-3.607 1.549-5.267 2.607-.418.266-.712.238-1.108-.035-1.569-1.084-3.161-2.133-4.809-3.238.465-.467 1.074-.826 1.716-1.289l4.323 2.653c1.849-1.026 3.744-2.02 5.852-2.69M190.801 59.842c1.574 1.126 3.102 2.219 4.717 3.372l-1.715.98-3.766-2.565-7.036 3.087c.152.091.278.203.425.25 2.001.645 3.883 1.56 5.735 2.542.306.162.629.24 1.001.278.659.069 1.195.54 1.794 1.052l-1.8 1.217c-3.021-1.95-6.333-3.19-9.68-4.413v-1.814c3.355-1.19 6.728-2.416 9.806-4.325.174.112.324.21.519.34M115.048 82.683c-2.014.586-3.156 1.97-3.63 3.862-.484 1.934-.312 3.856.6 5.674a5.084 5.084 0 0 0 5.886 2.624c.674-.182 1.237-.521 1.666-1.067.367-.468.711-.954 1.064-1.433.153-.205.283-.459.647-.283.014.076.07.186.043.269a178 178 0 0 1-.85 2.58c-.123.362-.422.519-.765.578-.56.098-1.121.218-1.685.239-1.007.037-2.03.117-3.019-.019-2.527-.346-4.425-1.606-5.407-4.068-.702-1.76-.723-3.52-.144-5.316.506-1.569 1.537-2.672 2.926-3.476 1.524-.884 3.199-1.167 4.927-1.103.925.034 1.848.197 2.766.343.622.098.674.18.745.796a75 75 0 0 1 .218 2.165c.015.169-.031.343-.051.532-.4 0-.512-.285-.652-.517-.201-.331-.378-.677-.573-1.012-.458-.786-1.136-1.244-2.032-1.41a6.9 6.9 0 0 0-2.68.042M256.446 86.149c-.326-.827-.629-1.597-.938-2.366-.226-.56-.599-.943-1.217-1.082-.302-.068-.687-.086-.775-.637 1.815-.097 3.6.001 5.351-.061.199.353.041.489-.208.575-.412.142-.824.28-1.329.45 1.092 3.307 2.32 6.508 3.552 9.875 1.342-3.32 2.648-6.479 3.727-9.66-.573-.624-1.489-.343-1.961-1.022.561-.231 3.801-.297 5.084-.12-.152.193-.241.369-.384.472-.14.1-.33.156-.505.18-.67.094-1.034.52-1.277 1.108-.297.716-.627 1.42-.919 2.139-1.071 2.636-2.127 5.28-3.2 7.916a20 20 0 0 1-.729 1.543c-.089.173-.25.31-.398.485-.462-.352-.573-.845-.738-1.291-.733-1.965-1.443-3.935-2.165-5.903-.313-.85-.633-1.697-.971-2.602M235.113 88.79c.487 1.318.949 2.583 1.415 3.846.016.045.065.078.16.184 1.237-3.168 2.454-6.29 3.645-9.344-.444-.835-1.431-.659-1.996-1.27.675-.222 4.245-.252 5.025-.087.081.361-.194.485-.433.516-1.093.14-1.541.923-1.905 1.82q-1.445 3.565-2.902 7.122c-.462 1.126-.927 2.25-1.411 3.367-.15.346-.369.662-.579 1.03-.405-.293-.542-.651-.674-1.01-.92-2.502-1.827-5.01-2.76-7.508-.434-1.165-.924-2.308-1.371-3.468-.258-.672-.669-1.147-1.4-1.314-.259-.06-.575-.104-.629-.469.458-.22 3.921-.302 5.345-.13-.013.308-.013.308-1.496.985.087.346.149.72.274 1.073.546 1.537 1.11 3.068 1.692 4.657M188.611 85.97c-.325-2.37 1.202-3.775 2.857-4.11 1.358-.275 2.667-.022 4.057.215.082 1.077.46 2.126.111 3.38-.223-.257-.362-.367-.436-.51-.201-.39-.37-.799-.562-1.194-.677-1.383-2.478-1.544-3.492-.923-.325.2-.604.578-.759.937-.427.987-.098 2.177.714 2.9.765.68 1.679 1.108 2.594 1.532.793.368 1.441.9 1.956 1.606 1.108 1.525.932 3.505-.452 4.79-.781.727-1.681 1.228-2.781 1.178-.953-.043-1.902-.142-2.851-.237-.617-.06-.978-.407-1.067-1.04-.1-.717-.239-1.43-.321-2.15-.018-.16.091-.428.218-.491.249-.122.325.144.422.325.309.566.614 1.134.939 1.69.724 1.232 2.769 1.497 4.031.678.303-.197.495-.655.617-1.032.428-1.326.042-2.417-1.1-3.174-.559-.371-1.167-.669-1.727-1.038-.668-.44-1.332-.89-1.951-1.395-.579-.47-.907-1.119-1.017-1.936M286.696 85.773c-.001 2.022-.005 3.967 0 5.912q.004.855.051 1.71c.061 1.115.153 1.22 1.282 1.273.747.036 1.497.011 2.246.011.501 0 .903-.225 1.202-.61.3-.386.573-.796.842-1.205.142-.216.245-.456.376-.679.109-.183.258-.387.484-.233.103.072.164.32.132.461-.243 1.029-.513 2.05-.778 3.09-.318.022-.545.052-.774.052-2.767 0-5.533 0-8.299-.011-.236 0-.599.122-.656-.225-.066-.413.346-.378.597-.443 1.467-.38 1.485-.376 1.494-1.877q.021-4.356.008-8.712c-.004-1.257-.024-1.262-1.207-1.6-.148-.043-.322-.058-.434-.148-.115-.093-.167-.263-.297-.484h5.61c.137.275.04.446-.229.525-.347.102-.701.181-1.048.28-.367.103-.548.334-.548.735 0 .7-.033 1.4-.054 2.177"></path><path d="m195.074 67.85 2.163 1.547 1.37-.935 1.697 1.556c-.881.572-1.687 1.11-2.509 1.62-.304.186-.535-.084-.761-.237-1.393-.938-2.798-1.862-4.168-2.834-1.799-1.276-3.724-2.324-5.701-3.285-.369-.18-.733-.368-1.17-.588l4.157-2.044 2.139 1.398-1.309.88zM214.922 59.932l7.64 4.9c-.439.452-.993.768-1.547 1.069-1.961 1.066-1.239 1.07-3.273-.12-.085-.05-.151-.129-.259-.223l.697-.933c-.215-.19-.402-.4-.632-.544-1.029-.642-2.075-1.256-3.104-1.897-.855-.53-1.696-1.084-2.585-1.655l-1.124.727-1.687-1.242c.12-.142.172-.231.248-.289.803-.606 1.609-1.207 2.489-1.865zM247.407 88.886c-.011-1.686-.013-3.294-.035-4.902-.012-.854-.147-1.01-.961-1.262-.196-.061-.413-.082-.59-.176-.131-.07-.214-.23-.424-.472h5.717c.091.236.072.42-.244.495-.301.07-.598.162-.894.256-.467.147-.737.429-.726.963.015.7-.026 1.4-.027 2.1q-.007 3.54.002 7.081c.002.361.025.727.082 1.083.073.458.333.743.83.77.307.015.613.066.914.102.117.57.118.607-.309.61-1.703.016-3.407.007-5.091.007-.162-.3-.13-.5.162-.59.246-.078.503-.122.751-.191.611-.17.762-.331.795-.973.037-.699.039-1.4.045-2.1.007-.908.002-1.815.003-2.801M193.917 61.212c-.307-.24-.567-.45-.905-.72l4.484-2.836c2.44 1.524 4.546 3.437 6.85 5.228l-1.636 1.374-5.167-3.81-2.468 1.567zM215.885 68.565c.075.112.155.238.127.272a2 2 0 0 1-.399.36 672 672 0 0 1-3.39 2.318c-.147.1-.311.178-.548.31-2.269-1.541-4.323-3.389-6.612-5.085l1.907-1.637c1.527 1.575 3.233 2.857 5.061 4.07.556-.406 1.125-.799 1.669-1.224.304-.239.578-.278.914-.075.398.238.817.443 1.271.69M199.888 68.614l-2.655-2.23c.671-.464 1.259-.87 1.875-1.298l5.534 4.26 1.313-1.014 1.98 1.55-3.263 2.223a38 38 0 0 1-4.784-3.492M206.87 61.921c-.761-.62-1.48-1.206-2.236-1.82l-1.399.922-1.879-1.308 3.302-2.56c2.433 1.956 4.639 4.268 7.606 5.768l-2.007 1.439c-1.207-.714-2.286-1.545-3.387-2.44M406.061 63.487c1.337.304 2.592.653 3.939 1.24-.346.166-.536.295-.745.352-1.518.413-3.034.846-4.566 1.198-.778.179-1.587.213-2.361-.133-.413-.184-.685-.418-.646-.928.036-.46.008-.925.008-1.412 1.137-.567 2.28-.974 3.559-.527.244.085.5.13.812.21M4.577 66.18a71 71 0 0 1-4.561-1.283L0 64.72c.24-.116.47-.27.724-.343 1.36-.391 2.73-.748 4.09-1.145 1.183-.346 2.23.039 3.351.57 0 .455-.035.946.01 1.428.048.515-.209.754-.636.912-.961.356-1.927.246-2.962.039"></path><path d="M194.88 66.501c-.44-.314-.829-.6-1.296-.945 1.541-1.364 3.207-2.396 4.782-3.69l1.792 1.464c-.166.156-.277.289-.416.382q-2.018 1.368-4.049 2.72c-.229.153-.472.358-.813.07M213.045 63.411c.658-.55 1.263-.593 1.909-.07.252.203.572.323.92.514l-5.06 3.628-1.805-1.289a36 36 0 0 1 4.036-2.783M205.486 65.627c-.742.56-1.444 1.084-2.214 1.66-.491-.324-.976-.642-1.558-1.024 1.423-1.44 2.95-2.642 4.468-3.985l1.691 1.314zM142.653 91.491c-.244-.018-.417-.037-.666-.064l.147-1.197h4.756l-.193 1.26zM399.174 66.007c-.035-.85-.035-1.646-.035-2.484.501-.176.992-.157 1.582.06 0 .666.029 1.355-.02 2.04-.011.165-.258.415-.429.446-.342.064-.707.003-1.098-.062M9.484 63.457c.44-.016.816-.016 1.239-.016v2.549c-.303.246-.675.211-1.012.129-.188-.046-.454-.253-.476-.416-.084-.633-.1-1.277-.103-1.917 0-.104.186-.21.352-.33M11.526 64.192c.012-.3.024-.527.04-.81l1.238-.07V66.1h-1.225zM398.24 63.848c.006.762.006 1.458.006 2.247l-1.181.08v-2.82c.442.114.982-.287 1.175.493"></path><path fill-rule="evenodd" d="m275.872 91.544.198.543c.085.296.193.58.301.86.197.516.392 1.023.431 1.598l-.287.092a9 9 0 0 0-.618.212q-.049.02-.102.038c-.25.09-.518.187-.326.615q.058.008.117.02c.083.016.167.032.25.032 1.369 0 2.739-.007 4.108-.013l.087.002c.105.004.212.008.294-.036.096-.049.174-.132.253-.214q.05-.053.103-.103l-.091-.087c-.072-.07-.143-.141-.228-.191a.6.6 0 0 0-.301-.056c-.773.008-1.153-.461-1.397-1.12q-.324-.876-.653-1.75-.397-1.049-.784-2.104-.821-2.251-1.635-4.505l-1.017-2.811a3.4 3.4 0 0 0-.229-.553c-.227-.407-.509-.406-.74.001-.167.29-.31.598-.434.909q-1.161 2.922-2.31 5.846-.296.756-.589 1.512a173 173 0 0 1-1.201 3.037c-.317.778-.704 1.51-1.729 1.534-.323.007-.501.237-.375.653h4.788l.022-.5.003-.05-.368-.074c-.277-.055-.541-.107-.802-.172-.646-.16-.732-.264-.535-.924.223-.745.474-1.483.724-2.218l.315-.93h4.358q.033.04.06.067c.03.034.053.058.063.087.092.246.182.493.276.752m-2.478-7.062v-.001c-.277.832-.581 1.618-.881 2.395-.369.953-.732 1.893-1.032 2.885h.001l.695-.001 3.147-.015-1.754-4.785z" clip-rule="evenodd"></path></g><defs><clipPath id="logo_svg__a"><path fill="#fff" d="M0 0h410v96H0z"></path></clipPath></defs></svg>